<svg width="46" height="55" viewBox="0 0 46 55" fill="none" xmlns="http://www.w3.org/2000/svg">
<path fill-rule="evenodd" clip-rule="evenodd" d="M42 34C44.2091 34 46 32.2091 46 30V13C46 10.7909 44.2091 9 42 9H39C36.7909 9 35 7.20914 35 5V4C35 1.79086 33.2091 0 31 0H15C12.7909 0 11 1.79086 11 4V5C11 7.20914 9.20914 9 7 9H4C1.79086 9 0 10.7909 0 13V30C0 32.2091 1.79086 34 4 34H7C9.20914 34 11 35.7909 11 38V39C11 41.2091 9.20914 43 7 43H4C1.79086 43 0 44.7909 0 47V51C0 53.2091 1.79086 55 4 55H8C10.2091 55 12 53.2091 12 51V48C12 45.7909 13.7909 44 16 44H31C33.2091 44 35 42.2091 35 40V38C35 35.7909 36.7909 34 39 34H42ZM34 26.5C34 27.8807 32.8807 29 31.5 29C30.1193 29 29 27.8807 29 26.5V18.5C29 17.1193 30.1193 16 31.5 16C32.8807 16 34 17.1193 34 18.5V26.5ZM17 26.5C17 27.8807 15.8807 29 14.5 29C13.1193 29 12 27.8807 12 26.5V18.5C12 17.1193 13.1193 16 14.5 16C15.8807 16 17 17.1193 17 18.5V26.5Z" fill="white"/>
</svg>
